<svg xmlns="http://www.w3.org/2000/svg" width="20" height="20" fill="none"><g clip-path="url(#a)"><path fill="#FAB037" fill-rule="evenodd" d="M13.87 17.349a31.426 31.426 0 0 1-2.644 2.2 4.64 4.64 0 0 0 .053-.04c-.906.654-2.393.654-3.3 0l.054.04a31.414 31.414 0 0 1-2.644-2.2C3.448 15.537 1.237 12.96.674 10.146-.465 4.452 4.148 0 9.63 0c5.482 0 10.094 4.452 8.955 10.146-.563 2.815-2.773 5.391-4.714 7.203Zm-4.241-4.637a3.588 3.588 0 1 0 0-7.176 3.588 3.588 0 0 0 0 7.176Z" clip-rule="evenodd"/></g><defs><clipPath id="a"><path fill="#fff" d="M.5 0h19v20H.5z"/></clipPath></defs></svg>