<svg xmlns="http://www.w3.org/2000/svg" width="23" height="27" fill="none"><g clip-path="url(#a)"><path fill="#3D2101" d="M.962 3.667c0-1.94 1.596-3.635 3.656-3.432C11.521.917 17.66 4.2 22.04 9.085c1.386 1.545.955 3.84-.62 4.983l-.549.397-.47-.7-.01-.015C16.254 8.04 9.529 4.322 1.934 4.322H.962v-.655Zm17.844 11.21.49.73c-1.888 1.37-3.947 2.863-5.115 3.713l-.262.195v2.724a1.296 1.296 0 0 1-2.592 0v-.079a.648.648 0 0 0-1.291.077v1.948a1.296 1.296 0 0 1-2.586.13L5.584 25.66c-1.93 1.393-4.626.015-4.626-2.365l.004-17.03h.972c6.939 0 13.085 3.391 16.872 8.611ZM6.147 11.871a1.296 1.296 0 1 0 0-2.592 1.296 1.296 0 0 0 0 2.592Zm5.185 3.886a1.296 1.296 0 1 0 0-2.592 1.296 1.296 0 0 0 0 2.592ZM6.147 19.64a1.296 1.296 0 1 0 0-2.592 1.296 1.296 0 0 0 0 2.592Z"/></g><defs><clipPath id="a"><path fill="#fff" d="M0 0h23v27H0z"/></clipPath></defs></svg>