<svg xmlns="http://www.w3.org/2000/svg" width="38" height="35" fill="none"><path fill="#fff" d="M.719 31.094A3.281 3.281 0 0 1 4 27.812h30a3.281 3.281 0 0 1 0 6.563H4a3.281 3.281 0 0 1-3.281-3.281Z"/><path fill="#fff" fill-rule="evenodd" d="M2.594 23.312v-1.167c0-7.735 5.38-14.216 12.612-15.924a4.219 4.219 0 1 1 7.589 0c7.231 1.708 12.611 8.189 12.611 15.924v1.167c0 .703 0 1.055-.179 1.301a.94.94 0 0 1-.207.208c-.246.179-.598.179-1.301.179H4.281c-.703 0-1.054 0-1.3-.18a.94.94 0 0 1-.208-.207c-.179-.246-.179-.598-.179-1.3Zm12.448-8.938a1.406 1.406 0 0 0-1.458-2.405 13.094 13.094 0 0 0-5.912 8.004 1.406 1.406 0 1 0 2.728.682 10.28 10.28 0 0 1 4.642-6.281Z" clip-rule="evenodd"/></svg>