<svg xmlns="http://www.w3.org/2000/svg" width="57" height="46" fill="none"><path fill="#05C167" d="M0 26h13.362v3.27H3.609v4.642h9.481v3.158H3.61v4.72h9.752v3.27H0V26Zm50.263 19.404c4.096 0 6.404-1.962 6.404-4.656 0-1.92-1.366-3.351-4.227-3.972l-3.024-.618c-1.756-.327-2.308-.654-2.308-1.308 0-.847.847-1.367 2.406-1.367 1.69 0 2.942.455 3.27 2.018h3.543c-.193-2.943-2.308-4.885-6.597-4.885-3.708 0-6.31 1.53-6.31 4.496 0 2.05 1.432 3.383 4.521 4.034l3.38.781c1.335.262 1.691.621 1.691 1.174 0 .88-1.007 1.432-2.635 1.432-2.047 0-3.217-.454-3.671-2.017h-3.564c.52 2.936 2.697 4.888 7.12 4.888Zm-8.15-.357h-3.836c-2.406 0-3.74-1.497-3.74-3.387v-7.487H31.84v-3.19h2.71v-4.006h3.564v4.006h3.998v3.19h-3.998v6.575c0 .749.52 1.108 1.334 1.108h2.664v3.191ZM26.745 30.99v1.268a6.918 6.918 0 0 0-4.488-1.634 7.392 7.392 0 1 0 0 14.78 6.899 6.899 0 0 0 4.488-1.634v1.272H30.3V30.983l-3.554.006Zm-4.194 11.328a4.299 4.299 0 1 1 4.25-4.296 4.251 4.251 0 0 1-4.257 4.29l.007.006Z"/><path fill="#fff" d="M55.536 7.62c-1.788 0-3.057 1.4-3.057 3.548v7.88h-2.73V5.177h2.698v1.694a3.658 3.658 0 0 1 3.25-1.791h.98v2.54h-1.14Zm-7.673 4.493c0-4.136-2.942-7.229-6.924-7.229a7.137 7.137 0 0 0-7.088 7.229c0 4.132 3.187 7.258 7.346 7.258a7.248 7.248 0 0 0 5.983-2.962l-1.981-1.452a4.832 4.832 0 0 1-4.002 2.017 4.65 4.65 0 0 1-4.577-3.969h11.25l-.007-.892ZM36.679 10.84c.487-2.115 2.177-3.547 4.227-3.547 2.05 0 3.737 1.432 4.194 3.547h-8.42ZM25.203 4.884a6.905 6.905 0 0 0-4.904 2.05V0h-2.73v19.047h2.698v-1.759a7.012 7.012 0 0 0 4.943 2.083 7.245 7.245 0 1 0 0-14.487h-.007Zm-.196 12.048a4.803 4.803 0 1 1 4.78-4.786 4.769 4.769 0 0 1-4.78 4.773v.013Zm-17.49-.13c2.634 0 4.68-2.021 4.68-5.049V0h2.829v19.047H12.23v-1.801a6.944 6.944 0 0 1-5.038 2.115C3.129 19.361 0 16.399 0 11.907V0h2.88v11.77c0 3.043 1.962 5.031 4.636 5.031Z"/></svg>