<svg xmlns="http://www.w3.org/2000/svg" width="121" height="20" fill="none"><path fill="#05C167" d="M63.675.5h13.361v3.27h-9.752v4.642h9.481v3.158h-9.481v4.72h9.752v3.27H63.675V.5Zm50.262 19.404c4.097 0 6.405-1.962 6.405-4.656 0-1.92-1.367-3.351-4.227-3.972l-3.024-.618c-1.756-.327-2.309-.654-2.309-1.308 0-.847.847-1.366 2.407-1.366 1.69 0 2.942.454 3.269 2.017h3.544c-.193-2.943-2.308-4.885-6.598-4.885-3.707 0-6.309 1.53-6.309 4.496 0 2.05 1.432 3.383 4.521 4.034l3.381.781c1.333.262 1.69.622 1.69 1.174 0 .88-1.007 1.432-2.635 1.432-2.047 0-3.217-.454-3.672-2.017h-3.563c.52 2.936 2.697 4.888 7.12 4.888Zm-8.15-.357h-3.835c-2.406 0-3.74-1.497-3.74-3.387V8.673h-2.697v-3.19h2.71V1.477h3.563v4.004h3.999v3.191h-3.999v6.575c0 .749.52 1.108 1.334 1.108h2.665v3.191ZM90.421 5.49v1.269a6.918 6.918 0 0 0-4.489-1.635 7.392 7.392 0 1 0 0 14.78 6.899 6.899 0 0 0 4.489-1.634v1.272h3.554V5.482l-3.554.007Zm-4.195 11.328a4.299 4.299 0 1 1 4.25-4.296 4.25 4.25 0 0 1-4.256 4.29l.007.006Z"/><path fill="#000" d="M55.743 8.12c-1.788 0-3.057 1.4-3.057 3.548v7.88h-2.73V5.677h2.698v1.694a3.658 3.658 0 0 1 3.25-1.791h.98v2.54h-1.14Zm-7.673 4.493c0-4.136-2.942-7.229-6.924-7.229a7.137 7.137 0 0 0-7.088 7.229c0 4.132 3.187 7.258 7.346 7.258a7.248 7.248 0 0 0 5.983-2.962l-1.981-1.452a4.831 4.831 0 0 1-4.002 2.017 4.65 4.65 0 0 1-4.577-3.969h11.25l-.007-.892ZM36.886 11.34c.487-2.115 2.177-3.547 4.227-3.547 2.05 0 3.737 1.432 4.195 3.547h-8.422ZM25.41 5.384a6.904 6.904 0 0 0-4.904 2.05V.5h-2.73v19.047h2.698v-1.759a7.013 7.013 0 0 0 4.943 2.083 7.244 7.244 0 1 0 0-14.487h-.007Zm-.196 12.048a4.803 4.803 0 1 1 4.78-4.786 4.765 4.765 0 0 1-4.78 4.773v.013Zm-17.49-.13c2.634 0 4.681-2.021 4.681-5.049V.5h2.828v19.047h-2.795v-1.801A6.944 6.944 0 0 1 7.4 19.86c-4.064 0-7.193-2.962-7.193-7.454V.5h2.88v11.77c0 3.043 1.962 5.031 4.636 5.031Z"/></svg>