<svg xmlns="http://www.w3.org/2000/svg" width="100" height="100" fill="none"><path fill="#3D2101" d="M100 50c0-27.614-22.386-50-50-50S0 22.386 0 50s22.386 50 50 50 50-22.386 50-50Z"/><path stroke="#FECF0A" stroke-width="2.918" d="M49.627 94.007c24.22 0 43.856-19.635 43.856-43.856S73.848 6.295 49.627 6.295 5.77 25.93 5.77 50.15s19.635 43.856 43.856 43.856Z"/><path fill="#FF8C45" d="M34.673 52.536a11.96 11.96 0 0 0 1.81-.588 8.801 8.801 0 0 0 1.55-.879c.285 1.296.182 2.343-.31 3.141-.478.773-1.332 1.306-2.562 1.597a14.82 14.82 0 0 1-2.002.315c-.73.067-1.678.11-2.845.131l.428 20.412-4.357 1.032-.45-21.045-.363.086c-1.956.463-3.279 1.31-3.967 2.538-.674 1.203-.764 2.843-.272 4.92.09.384.19.712.297.985.127.268.283.519.466.752.06.071.094.127.103.167.025.016.04.033.045.053-1.13.268-2.011.232-2.646-.107-.619-.365-1.048-1.052-1.287-2.06-.568-2.4-.122-4.519 1.338-6.356 1.476-1.862 3.848-3.18 7.115-3.954a19.68 19.68 0 0 1 1.927-.361 31.956 31.956 0 0 1 2.455-.294 27.86 27.86 0 0 0 2.03-.194c.494-.074.993-.171 1.497-.29Zm0 18.277c-.272-1.15-.38-2.413-.323-3.79.078-1.382.32-2.653.726-3.814.464-1.367 1.149-2.477 2.054-3.331.901-.874 1.997-1.464 3.287-1.77 1.291-.305 2.355-.131 3.191.523.837.653 1.447 1.787 1.829 3.4l.135.032.212-.05c.625-.148 1.331-.496 2.117-1.045a11.953 11.953 0 0 0 2.112-1.874l.466.752c-.422.739-1.054 1.443-1.896 2.111-.823.664-1.777 1.22-2.864 1.67.403 2.78.138 5.164-.797 7.153-.934 1.99-2.36 3.212-4.276 3.666-1.573.373-2.868.253-3.886-.357-1.019-.611-1.714-1.703-2.087-3.276Zm6.424-10.916c-.968.229-1.654 1.425-2.058 3.587-.383 2.157-.367 4.113.049 5.867.224.948.478 1.57.761 1.865.303.29.757.364 1.362.22.747-.177 1.31-.949 1.688-2.317.399-1.373.509-2.975.33-4.807-.296.006-.539-.075-.728-.243-.174-.193-.303-.471-.39-.834a2.034 2.034 0 0 1 .006-1.056c.095-.32.276-.587.545-.8-.193-.636-.411-1.063-.655-1.283-.224-.224-.527-.29-.91-.2Zm7.841 8.813a7.331 7.331 0 0 1-.147-.891c-.04-.353-.066-.73-.076-1.132l-.245-10.2 4.357-1.032.26 10.803c.008.126.019.261.032.407.008.126.027.25.056.37.1.424.25.74.448.949.214.183.472.24.775.168.524-.125.935-.457 1.234-.996.313-.564.498-1.31.555-2.24l-.244-10.199 4.357-1.032.259 10.802c.012.231.022.453.03.664.022.186.048.34.077.46.076.324.216.557.42.7.22.118.502.137.845.055.706-.167 1.305-.692 1.799-1.576.509-.909.875-2.103 1.1-3.584.174-1.064.255-2.159.244-3.285-.011-1.126-.113-2.093-.304-2.9-.021.09-.135.193-.343.306a2.055 2.055 0 0 1-.553.227c-.323.076-.621-.013-.894-.268a2.068 2.068 0 0 1-.561-1.017c-.12-.504-.051-.936.204-1.295.272-.384.7-.645 1.285-.783.625-.148 1.154-.029 1.586.359.433.387.747.994.943 1.821.325 1.371.485 2.857.48 4.455.011 1.574-.14 3.048-.453 4.421-.43 1.785-1.11 3.224-2.044 4.319-.934 1.094-2.086 1.804-3.458 2.13-1.008.238-1.875.22-2.6-.055-.711-.3-1.255-.843-1.632-1.627-.384.986-.88 1.774-1.485 2.365-.585.586-1.322.984-2.21 1.195-1.007.239-1.878.115-2.611-.372-.718-.511-1.213-1.342-1.486-2.492Zm27.645-6.327a9.871 9.871 0 0 1-.201-1.39 61.82 61.82 0 0 1-.042-2.738c.01-1.217-.004-2.087-.043-2.61a8.514 8.514 0 0 0-.18-1.3c-.12-.503-.301-.865-.545-1.084-.243-.22-.547-.286-.91-.2-.484.115-.878.474-1.182 1.079-.289.58-.461 1.334-.518 2.264l.244 10.198-4.356 1.033-.378-15.887 4.356-1.032.04 1.652c.37-.684.815-1.237 1.333-1.658a4.446 4.446 0 0 1 1.805-.875c1.07-.254 1.966-.157 2.69.29.723.446 1.216 1.223 1.479 2.333.11.464.18 1.033.212 1.707.048.649.065 1.667.053 3.054a44.847 44.847 0 0 0 .002 2.3c.02.443.063.806.13 1.088.1.424.278.723.532.897.25.153.576.183.98.087a1.88 1.88 0 0 0 1.178-.823c.282-.428.526-1.242.732-2.442l1.27-.3c-.2 2.028-.655 3.616-1.363 4.764-.688 1.143-1.667 1.865-2.937 2.166-1.13.267-2.079.173-2.847-.284-.774-.477-1.285-1.24-1.534-2.289Z"/><path fill="#FAB037" d="m24.107 25.686-1.503-1.235-.009.011 1.512 1.224Zm7.551-2.363-.763 1.79.01.004.01.004.743-1.798Zm1.585 4.268-1.748-.855-.009.019-.009.019 1.766.817Zm-2.159 1.17-.375 1.909.03.006.031.005.314-1.92Zm-.646-.305-1.358-1.392-1.61 1.571 1.788 1.366 1.18-1.545Zm.637-1.183-1.878-.507-.008.03-.007.032 1.893.445Zm-.8-2.648-.975 1.683.024.014.024.013.928-1.71Zm-3.298.954-1.635-1.055-.01.017-.01.017 1.655 1.02Zm.699 3.675-1.43 1.319.009.01.009.009 1.412-1.338Zm2.656 1.778-.917 1.715.01.005.907-1.72Zm3.594 2.587-1.502 1.236.005.006.005.006 1.492-1.248Zm-6.745 2.86-.777 1.783.024.01.025.01.728-1.803Zm1.014 1.135.449 1.893 2.018-.479-.607-1.984-1.86.57Zm-2.146 1.225-1.5-1.238-.01.011-.008.011 1.518 1.216Zm.842-5.158 1.092-1.61-.01-.005-.008-.006-1.074 1.621Zm-2.787-2.205-1.506 1.231.02.025.021.024 1.465-1.28Zm-.964-1.892 1.892-.449c-.178-.753-.045-1.444.588-2.226l-1.513-1.223-1.512-1.224c-1.318 1.63-1.83 3.537-1.348 5.57l1.893-.448Zm.967-3.898 1.504 1.234c.68-.829 1.665-1.448 3.094-1.787l-.448-1.892-.449-1.893c-2.116.502-3.898 1.513-5.204 3.103l1.503 1.235Zm4.15-2.445.448 1.893c1.148-.272 1.819-.18 2.19-.022l.763-1.789.763-1.789c-1.414-.603-3.01-.566-4.613-.186l.449 1.893Zm3.401.082-.743 1.798c.273.112.47.282.59.79l1.892-.45 1.893-.448c-.377-1.59-1.34-2.847-2.889-3.487l-.743 1.797Zm1.74 2.139-1.893.448c.115.485.044.715-.01.826l1.748.855 1.747.854c.538-1.1.571-2.288.3-3.432l-1.893.449Zm-.155 2.129-1.766-.817a.232.232 0 0 1-.023.042l.008-.008-.004.002a.446.446 0 0 1-.085.027l.449 1.893.448 1.892c1.224-.29 2.198-1.048 2.738-2.215l-1.765-.816Zm-1.421 1.139-.449-1.893-.009.002a.145.145 0 0 1 .034.003l-.314 1.92-.314 1.919a3.81 3.81 0 0 0 1.5-.059l-.448-1.892Zm-.738.031.375-1.908c.12.023.175.068.16.057l-1.18 1.546L29.257 30a3.5 3.5 0 0 0 1.451.669l.375-1.909Zm-.646-.305 1.359 1.392c.613-.598.986-1.34 1.172-2.13l-1.894-.445-1.893-.445c-.043.18-.094.228-.102.236l1.358 1.392Zm.637-1.183 1.878.507A4.834 4.834 0 0 0 33 25.384l-1.893.449-1.892.448a.948.948 0 0 1-.017.485l1.878.507Zm.032-1.44 1.892-.449c-.23-.97-.773-1.914-1.795-2.468l-.928 1.71-.928 1.709a.48.48 0 0 1-.155-.136c-.024-.035-.004-.023.02.082l1.893-.448Zm-.831-1.208.976-1.682c-.991-.575-2.082-.57-3.033-.345l.449 1.892.448 1.893a.98.98 0 0 1 .28-.036c.008 0 0 0-.02-.006a.359.359 0 0 1-.076-.033l.976-1.683Zm-1.608-.135-.449-1.892c-1.143.27-2.193.867-2.877 1.926l1.635 1.055 1.634 1.055c.015-.024.092-.153.505-.25l-.448-1.894Zm-1.691 1.089-1.656-1.021c-.67 1.085-.727 2.303-.457 3.442l1.892-.449 1.893-.448a1.245 1.245 0 0 1-.043-.412.196.196 0 0 1 .026-.09l-1.655-1.022Zm-.22 1.972L24.863 28c.23.974.704 1.838 1.382 2.573l1.43-1.32 1.43-1.318a1.815 1.815 0 0 1-.457-.832l-1.893.448Zm.919 1.703-1.412 1.338c.692.73 1.825 1.446 3.151 2.155l.917-1.715.917-1.716c-1.298-.694-1.937-1.163-2.162-1.4l-1.411 1.338Zm2.656 1.778-.907 1.72c1.657.874 2.578 1.59 2.999 2.103l1.502-1.236 1.502-1.236c-.92-1.119-2.395-2.127-4.188-3.072l-.908 1.72Zm3.594 2.587-1.492 1.248c.452.541.794 1.219.998 2.08l1.893-.45 1.892-.448c-.327-1.383-.918-2.624-1.799-3.678l-1.492 1.248Zm1.399 2.879-1.893.448c.372 1.57.116 2.793-.655 3.856l1.574 1.142 1.575 1.142c1.504-2.073 1.897-4.482 1.291-7.037l-1.892.449Zm-.974 5.446-1.574-1.142c-.817 1.126-2.06 1.953-3.918 2.394l.448 1.893.449 1.892c2.592-.614 4.711-1.883 6.17-3.895l-1.575-1.142Zm-5.044 3.145-.448-1.893c-1.496.354-2.518.234-3.227-.095l-.82 1.763-.821 1.764c1.74.81 3.714.84 5.765.353l-.449-1.892Zm-4.495-.225.82-1.763c-.61-.284-1.057-.776-1.291-1.765l-1.893.448-1.892.449c.468 1.978 1.597 3.539 3.435 4.395l.82-1.764Zm-2.364-3.08 1.893-.448c-.212-.897-.096-1.539.204-2.065l-1.689-.965-1.689-.965c-.86 1.506-1.016 3.183-.611 4.892l1.892-.449Zm.408-3.478 1.69.965c.323-.566.725-.857 1.285-.99l-.448-1.892-.449-1.893c-1.646.39-2.928 1.378-3.767 2.845l1.69.965Zm2.527-1.917.448 1.892c.389-.091.54-.033.573-.02l.777-1.782.777-1.784c-.99-.43-2.037-.433-3.024-.199l.449 1.893Zm1.798.09-.728 1.803c.003.001-.009-.003-.028-.016a.349.349 0 0 1-.097-.103c-.004-.008 0-.004.007.02l1.86-.57 1.86-.569c-.33-1.077-1.06-1.931-2.146-2.37l-.728 1.805Zm1.014 1.135-.448-1.893c-1.247.296-2.376.883-3.198 1.88l1.5 1.238 1.5 1.238c.158-.191.46-.42 1.095-.57l-.449-1.893Zm-2.146 1.225-1.518-1.215c-.88 1.1-1.112 2.419-.8 3.741l1.894-.448 1.892-.449a.66.66 0 0 1-.022-.278.309.309 0 0 1 .073-.136l-1.519-1.215Zm-.424 2.078-1.893.448c.28 1.186.928 2.21 1.99 2.893l1.052-1.636 1.052-1.636c-.11-.07-.23-.183-.309-.517l-1.892.448Zm1.149 1.705-1.052 1.636c1.108.713 2.36.827 3.573.54l-.448-1.893-.449-1.893c-.378.09-.508.016-.572-.026l-1.052 1.636Zm2.073.283.448 1.892c1.433-.34 2.602-1.167 3.313-2.487l-1.713-.922-1.713-.922c-.138.256-.335.44-.784.546l.449 1.893Zm2.048-1.517 1.713.922c.705-1.31.765-2.77.424-4.209l-1.892.449-1.893.448c.182.768.079 1.201-.065 1.468l1.713.922Zm.245-2.838 1.892-.449a7.594 7.594 0 0 0-1.537-3.092l-1.504 1.234-1.504 1.233c.38.464.628.965.76 1.522l1.893-.448Zm-1.15-2.307 1.505-1.234c-.751-.916-1.98-1.898-3.512-2.937l-1.092 1.61-1.093 1.609c1.474 1 2.312 1.725 2.689 2.185l1.504-1.233Zm-3.1-2.562 1.075-1.621c-1.342-.89-2.082-1.505-2.397-1.864l-1.464 1.28-1.465 1.28c.682.78 1.8 1.635 3.178 2.547l1.074-1.622Zm-2.786-2.205 1.506-1.232c-.32-.39-.494-.757-.578-1.109l-1.892.448-1.893.449c.234.987.701 1.88 1.351 2.675l1.506-1.231Zm12.976 7.07 1.934-.21-.002-.014-1.932.224Zm-.069-1.015-1.944.043v.006l1.944-.05Zm-.318-14.283-.697-1.816-1.278.491.03 1.368 1.945-.043Zm3.888-1.495 1.945-.044-.064-2.763-2.579.992.698 1.815Zm.352 15.393 1.945-.027v-.017l-1.945.044Zm.028.48 1.937-.176-.002-.017-.002-.017-1.933.21Zm.5 1.143-1.022 1.656.092.056.098.047.832-1.759Zm2.203-.98 1.635 1.054.01-.016.01-.017-1.655-1.021Zm.593-1.975-.449-1.893-1.398.331-.094 1.434 1.94.128Zm1.14-.27 1.934.205.289-2.731-2.672.633.449 1.893Zm-6.852 6.037-1.13 1.584.027.019.027.018 1.075-1.62Zm-1.333-2.235 1.893-.448a4.674 4.674 0 0 1-.091-.562l-1.934.21-1.934.21c.04.36.096.709.174 1.039l1.892-.449Zm-.132-.8 1.932-.224a9.45 9.45 0 0 1-.056-.84l-1.945.049-1.944.049c.01.412.037.81.081 1.19l1.932-.224Zm-.069-1.015 1.945-.044-.318-14.283-1.945.044-1.944.043.318 14.283 1.944-.043Zm-.318-14.283.698 1.815 3.888-1.494-.698-1.816-.698-1.815-3.888 1.494.698 1.816Zm3.888-1.495-1.945.045.352 15.393 1.945-.045 1.944-.044-.351-15.393-1.945.044Zm.352 15.393-1.945.027c.003.224.015.446.039.664l1.934-.21 1.933-.21a3.212 3.212 0 0 1-.016-.298l-1.945.027Zm.028.48-1.938.177c.022.234.061.463.114.686l1.893-.449 1.893-.448a1.039 1.039 0 0 1-.025-.142l-1.937.177Zm.069.414-1.893.449c.139.585.467 1.42 1.302 1.936l1.022-1.656 1.02-1.655c.216.133.338.292.396.39.053.091.057.135.046.088l-1.893.448Zm.43.73-.831 1.758c.813.385 1.651.275 2.2.145l-.449-1.892-.448-1.893c-.092.022-.105.015-.056.016.049 0 .21.01.417.107l-.832 1.758Zm.92.01.449 1.893c1.105-.262 1.916-.972 2.47-1.83l-1.635-1.054-1.634-1.055a.702.702 0 0 1-.138.17l.009-.005a.155.155 0 0 1 .03-.011l.45 1.893Zm1.284-.991 1.656 1.02c.535-.868.81-1.843.878-2.867l-1.941-.128-1.941-.128c-.032.49-.153.83-.307 1.081l1.655 1.022Zm.593-1.975.448 1.893 1.14-.27-.448-1.893-.449-1.893-1.14.27.449 1.893Zm1.14-.27-1.935-.205c-.165 1.56-.57 2.64-1.093 3.37l1.581 1.133 1.581 1.133c1.028-1.434 1.587-3.22 1.8-5.226l-1.934-.205Zm-1.447 4.298-1.58-1.134c-.51.71-1.133 1.125-1.931 1.314l.449 1.892.448 1.893c1.734-.41 3.153-1.378 4.195-2.832l-1.58-1.133Zm-3.062 2.072-.449-1.892c-.482.114-.69.024-.819-.061l-1.075 1.62-1.076 1.62c1.186.788 2.54.92 3.867.606l-.448-1.893Zm-2.343-.333 1.129-1.584c-.146-.104-.396-.369-.569-1.1l-1.893.45-1.892.448c.315 1.331.954 2.556 2.095 3.37l1.13-1.584Zm9.06-17.967-1.633-1.056-.011.017-.011.018 1.655 1.02Zm-3.759-2.32 1.656 1.022.01-.018.01-.017-1.676-.986Zm3.04-.72-1.057 1.634.035.023.036.02.985-1.676Zm-2.704 16.29 1.934-.21-.002-.015-1.932.224Zm-.069-1.016-1.944.046v.003l1.945-.05Zm-.218-9.148-.449-1.893-1.534.364.038 1.576 1.945-.047Zm3.907-.926 1.945-.047-.058-2.4-2.335.554.448 1.893Zm.233 9.69 1.945-.028v-.02l-1.945.047Zm.028.48L50 35.767l-.002-.017-.002-.017-1.933.21Zm.5 1.142-1.022 1.656.092.056.097.046.833-1.758Zm2.203-.98 1.635 1.054.01-.016.01-.017-1.655-1.021Zm.593-1.975-.449-1.893-1.398.331-.094 1.434 1.94.128Zm1.14-.27 1.934.205.289-2.731-2.672.633.448 1.893Zm-6.852 6.037-1.13 1.584.027.019.027.018 1.076-1.62Zm2.25-17.958-1.893.448a.35.35 0 0 1 .01.067v.018l-.007.02a.399.399 0 0 1-.035.065l1.633 1.056 1.634 1.056c.621-.96.815-2.061.55-3.179l-1.892.449Zm-.291 1.674-1.656-1.021a.238.238 0 0 1-.06.073.292.292 0 0 1-.105.04l.449 1.892.448 1.893a4.07 4.07 0 0 0 2.579-1.856l-1.656-1.021Zm-1.372.984-.449-1.893a.288.288 0 0 1-.112.012.24.24 0 0 1-.086-.038l-1.02 1.655-1.022 1.656a4.07 4.07 0 0 0 3.137.5l-.448-1.892Zm-1.668-.264 1.021-1.655a.225.225 0 0 1-.072-.06.291.291 0 0 1-.04-.105l-1.893.448-1.893.449a4.07 4.07 0 0 0 1.856 2.579l1.021-1.656Zm-.984-1.372 1.893-.448a.288.288 0 0 1-.012-.112c.001-.005.005-.031.039-.086l-1.656-1.021-1.655-1.021a4.07 4.07 0 0 0-.502 3.137l1.893-.449Zm.264-1.667 1.677.986a.39.39 0 0 1 .057-.076l.016-.008a.36.36 0 0 1 .064-.02l-.449-1.893-.448-1.893a4.025 4.025 0 0 0-2.594 1.918l1.677.986Zm1.365-1.012.449 1.893a.349.349 0 0 1 .067-.01h.017l.02.007a.402.402 0 0 1 .065.035l1.056-1.633 1.056-1.634a4.025 4.025 0 0 0-3.178-.55l.448 1.893Zm1.674.292-.985 1.677a.39.39 0 0 1 .075.057l.008.015c.005.01.013.03.02.064l1.894-.448 1.892-.449a4.025 4.025 0 0 0-1.918-2.593l-.986 1.677Zm-2.57 17.088 1.892-.448a4.629 4.629 0 0 1-.091-.562l-1.934.21-1.934.21c.04.36.096.709.174 1.039l1.892-.449Zm-.133-.8 1.932-.224a9.45 9.45 0 0 1-.056-.84l-1.944.049-1.945.049c.01.412.037.81.081 1.19l1.932-.224Zm-.069-1.015 1.945-.047-.219-9.148-1.944.047-1.945.047.219 9.147 1.945-.046Zm-.218-9.148.448 1.893 3.908-.926-.449-1.893-.448-1.893-3.908.926.449 1.893Zm3.907-.926-1.944.047.232 9.689 1.945-.047 1.944-.046-.232-9.69-1.945.047Zm.233 9.69-1.945.026c.003.224.015.446.039.664l1.934-.21 1.933-.21a3.21 3.21 0 0 1-.016-.298l-1.945.027Zm.028.48-1.938.176c.022.234.061.463.114.686l1.893-.449 1.893-.448a1.034 1.034 0 0 1-.025-.142l-1.937.177Zm.069.413-1.893.449c.139.586.467 1.42 1.302 1.936l1.022-1.656 1.02-1.655c.216.133.338.292.396.39.053.091.057.135.046.088l-1.893.448Zm.43.73-.832 1.757c.814.386 1.652.276 2.2.146l-.448-1.892-.448-1.893c-.092.022-.105.015-.056.016.049 0 .21.01.417.107l-.832 1.758Zm.92.01.449 1.893c1.105-.262 1.916-.972 2.47-1.83l-1.635-1.054-1.634-1.055a.703.703 0 0 1-.138.17.17.17 0 0 1 .04-.016l.448 1.893Zm1.284-.991 1.656 1.02c.536-.868.81-1.843.878-2.867l-1.941-.128-1.941-.128c-.032.49-.153.83-.307 1.081l1.655 1.022Zm.593-1.975.448 1.893 1.14-.27-.449-1.893-.448-1.893-1.14.27.449 1.893Zm1.14-.27-1.935-.205c-.165 1.56-.57 2.64-1.093 3.37l1.581 1.133 1.581 1.133c1.028-1.434 1.587-3.22 1.8-5.226l-1.935-.205Zm-1.447 4.298-1.58-1.134c-.51.71-1.133 1.125-1.931 1.314l.449 1.892.448 1.893c1.734-.41 3.153-1.378 4.195-2.832l-1.58-1.133ZM47.99 40.23l-.448-1.892c-.482.114-.69.024-.819-.061l-1.075 1.62-1.076 1.62c1.186.788 2.54.92 3.867.606l-.449-1.893Zm-2.342-.333 1.129-1.584c-.146-.104-.396-.369-.569-1.1l-1.893.45-1.892.448c.315 1.331.954 2.556 2.095 3.37l1.13-1.584ZM59 27.047l-1.783-.777-.004.007-.003.008 1.79.762Zm-1.936.659-1.93-.245-.194 1.532 1.447.537.677-1.824Zm-.436-2.447-1.356 1.394.03.03.032.029 1.294-1.453Zm-2.319 3.157 1.92.313.001-.007-1.92-.306Zm.92 7.148-1.208 1.525.025.019.024.018 1.16-1.562Zm3.868-.974 1.292 1.454.006-.006.007-.006-1.305-1.442Zm1.955-2.756-.449-1.893-.856.203-.413.777 1.718.913Zm.922-.219 1.846.612 1.098-3.308-3.392.803.448 1.893Zm-2.519 4.61 1.419 1.33.007-.007.006-.007-1.432-1.316ZM52.27 38.07l-1.042 1.642.01.007.011.006 1.021-1.655Zm-2.14-6.37-1.943-.081-.001.014v.014l1.944.053Zm.597-3.41 1.845.617.001-.004-1.846-.612Zm1.809-3.007 1.346 1.404.008-.008-1.354-1.396Zm5.328-1.463-.891 1.729.018.009.018.009.855-1.747Zm1.197 1.665-1.893.448c.083.351.016.414.05.337l1.783.777 1.783.776c.405-.93.378-1.907.17-2.787l-1.893.449ZM59 27.047l-1.79-.762a.673.673 0 0 1 .186-.238.638.638 0 0 1 .247-.133l.448 1.893.449 1.892a3.19 3.19 0 0 0 2.25-1.89L59 27.046Zm-.909.76-.448-1.893c.092-.022.146-.017.14-.017l-.172 1.938-.174 1.937c.347.03.72.018 1.103-.073l-.449-1.892Zm-.48.027.172-1.937c.02.002.007.003-.042-.015l-.677 1.824-.677 1.824c.329.121.68.209 1.05.242l.173-1.938Zm-.547-.128 1.93.245c.052-.408.073-.813.059-1.213l-1.944.069-1.944.069a3.66 3.66 0 0 1-.03.585l1.93.245Zm.045-.9 1.944-.068c-.014-.39-.06-.78-.15-1.159l-1.893.449-1.892.448c.021.091.04.222.047.4l1.944-.07Zm-.099-.778 1.893-.449c-.124-.524-.379-1.236-.982-1.773l-1.293 1.453-1.294 1.453a.969.969 0 0 1-.225-.281c-.019-.038-.01-.031.009.045l1.892-.448Zm-.383-.77 1.357-1.394c-.692-.672-1.602-.861-2.446-.661l.449 1.892.449 1.893a1.307 1.307 0 0 1-1.164-.335l1.356-1.394Zm-.64-.163-.449-1.892c-1.193.282-1.9 1.189-2.304 1.987-.41.812-.67 1.82-.846 2.92l1.921.306 1.921.306c.148-.926.328-1.483.477-1.778.156-.309.126-.05-.271.044l-.45-1.893Zm-1.678 3.321-1.92-.313c-.36 2.21-.337 4.301.122 6.242l1.893-.449 1.893-.448c-.32-1.352-.362-2.915-.068-4.72l-1.92-.312Zm.095 5.48-1.893.449c.22.927.62 2.038 1.51 2.744l1.208-1.525 1.208-1.525c.117.093.12.148.065.036a3.074 3.074 0 0 1-.205-.627l-1.893.448Zm.825 1.668-1.159 1.562c1.06.787 2.33.704 3.276.48l-.448-1.893-.449-1.893a1.997 1.997 0 0 1-.329.05h-.02s.008 0 .023.004a.778.778 0 0 1 .267.128l-1.159 1.562Zm1.669.149.448 1.892a6.922 6.922 0 0 0 3.043-1.561l-1.292-1.454-1.293-1.454c-.36.32-.798.552-1.355.684l.449 1.893Zm2.199-1.123 1.305 1.442c.873-.79 1.65-1.936 2.367-3.285l-1.717-.913-1.718-.913c-.63 1.187-1.157 1.877-1.543 2.227l1.306 1.442Zm1.955-2.756.448 1.893.923-.22-.449-1.892-.448-1.892-.923.218.449 1.893Zm.922-.219-1.846-.612c-.588 1.773-1.31 3.041-2.105 3.905l1.432 1.316 1.432 1.317c1.272-1.384 2.229-3.188 2.934-5.314l-1.847-.612Zm-2.519 4.61-1.418-1.331a5.432 5.432 0 0 1-2.784 1.617l.449 1.893.448 1.892a9.32 9.32 0 0 0 4.724-2.74l-1.419-1.331Zm-3.754 2.179-.448-1.893c-1.077.255-1.646.1-1.962-.096l-1.022 1.656-1.02 1.655c1.473.91 3.192.975 4.901.57l-.449-1.892Zm-3.432-.333 1.042-1.643c-.298-.189-.702-.643-.972-1.784l-1.893.448-1.893.449c.407 1.717 1.218 3.248 2.674 4.172l1.042-1.642Zm-1.823-2.979 1.893-.448c-.2-.843-.295-1.803-.266-2.892L50.13 31.7l-1.944-.053c-.037 1.373.08 2.675.368 3.894l1.893-.449ZM50.13 31.7l1.944.08c.044-1.076.216-2.03.498-2.873l-1.845-.616-1.845-.616c-.411 1.23-.637 2.55-.695 3.944l1.943.08Zm.597-3.41 1.846.613c.332-1 .784-1.713 1.31-2.216l-1.347-1.404-1.346-1.404c-1.063 1.019-1.817 2.313-2.31 3.8l1.847.612Zm1.809-3.007 1.354 1.396c.546-.53 1.203-.891 2.016-1.084l-.449-1.893-.448-1.893c-1.467.348-2.758 1.04-3.828 2.078l1.355 1.396Zm2.921-1.58.449 1.892c.758-.18 1.031-.065 1.067-.046l.89-1.73.892-1.728c-1.183-.61-2.515-.574-3.746-.282l.448 1.893Zm2.407.117-.855 1.747c.01.005.014.005.029.026a.99.99 0 0 1 .13.34l1.893-.448 1.893-.449c-.292-1.23-.983-2.351-2.235-2.964l-.855 1.748Zm10.724 3.677 1.598 1.11.004-.007.005-.006-1.607-1.097Zm-3.971 2.833-.549-1.866-1.668.49.3 1.713 1.917-.337Zm.112.719-1.93.236.013.107.025.105 1.892-.448Zm.915 2.047-1.207 1.525.024.019.025.018 1.158-1.562Zm3.868-.974 1.292 1.454.007-.006.006-.006-1.305-1.442Zm1.955-2.756-.448-1.893-.857.203-.413.777 1.718.913Zm.923-.219 1.846.613 1.097-3.31-3.392.805.449 1.892Zm-2.52 4.61 1.42 1.33.013-.014-1.432-1.316Zm-7.185 1.846-1.042 1.642.01.007.01.006 1.022-1.655Zm-1.544-9.78-1.846-.612-.004.012-.004.01 1.854.59Zm1.81-3.008 1.346 1.404.008-.008-1.355-1.396Zm5.327-1.463-.922 1.712.033.018.034.017.855-1.747Zm-3.302 3.361-1.864-.552-.003.01 1.867.543Zm-.451 4.263-1.944.069.09 2.545 2.432-.756-.578-1.858Zm2.4-2.087-1.717-.914-.001.002 1.718.912Zm2.576-3.764-1.893.449c.215.908.067 1.811-.627 2.827l1.607 1.096 1.607 1.097c1.235-1.81 1.695-3.822 1.199-5.917l-1.893.448Zm-.913 4.372-1.598-1.109c-.707 1.019-1.655 1.703-2.922 2.076l.549 1.866.548 1.866c2.09-.614 3.79-1.818 5.02-3.59l-1.597-1.109Zm-3.971 2.833-1.916.337c.053.302.084.502.098.618l1.93-.236 1.931-.237a16.871 16.871 0 0 0-.128-.819l-1.915.337Zm.112.719-1.892.448a.01.01 0 0 0 0 .002.014.014 0 0 0 0 .001.014.014 0 0 0 .001.002.01.01 0 0 0 0 .002.01.01 0 0 0 0 .002.01.01 0 0 0 .001.001.01.01 0 0 0 0 .002l.001.002a.01.01 0 0 0 0 .001.014.014 0 0 0 0 .002.01.01 0 0 0 .001.002.01.01 0 0 0 0 .001l.001.002a.014.014 0 0 0 0 .002.01.01 0 0 0 0 .001l.001.002v.002a.008.008 0 0 1 0 .001.012.012 0 0 1 .001.002.01.01 0 0 1 0 .002.01.01 0 0 1 .001.001.012.012 0 0 1 0 .002v.002s.001 0 0 0l.001.001v.002l.001.002v.001a.01.01 0 0 0 0 .002l.001.002v.001a.009.009 0 0 1 .001.002.012.012 0 0 1 0 .001.008.008 0 0 1 0 .002l.001.002v.001l.001.002v.002a.014.014 0 0 0 0 .001l.001.002a.012.012 0 0 1 0 .002.008.008 0 0 1 0 .001l.001.002v.001l.001.002a.014.014 0 0 0 0 .002v.001a.01.01 0 0 1 .001.002v.002l.001.001a.01.01 0 0 0 0 .002v.001l.001.002a.007.007 0 0 1 0 .002v.001s.001 0 0 0l.001.002a.01.01 0 0 0 0 .001l.001.002a.01.01 0 0 1 0 .002v.001l.001.002v.001a.009.009 0 0 1 0 .002.01.01 0 0 1 .001.002v.001a.012.012 0 0 0 .001.002v.001a.011.011 0 0 1 0 .002l.001.002a.01.01 0 0 0 0 .001v.002s.001 0 0 0a.007.007 0 0 1 .001.001v.002l.001.001v.004l.001.001v.002a.009.009 0 0 1 0 .001l.001.002a.01.01 0 0 0 0 .001l.001.002v.003l.001.002a.01.01 0 0 1 0 .001v.002l.001.001a.008.008 0 0 1 0 .002l.001.001v.002a.008.008 0 0 1 0 .002l.001.001v.002a.008.008 0 0 1 0 .001l.001.002v.003s.001 0 0 0l.001.001v.002l.001.001v.002a.008.008 0 0 1 0 .001l.001.002v.003l.001.002a.008.008 0 0 1 0 .001v.002l.001.001v.002l.001.001a.008.008 0 0 1 0 .002v.001l.001.002v.003l.001.001v.002a.008.008 0 0 1 0 .001l.001.002v.003l.001.001v.003s.001 0 0 0l.001.002v.001l.001.002v.002l.001.002v.002s0 .001 0 0l.001.002v.003l.001.002v.003l.001.001v.003l.001.002v.001a.007.007 0 0 1 0 .002l.001.001a.009.009 0 0 1 0 .001l.001.002v.003l.001.001v.003a.008.008 0 0 1 .001.002v.002l.001.002v.001a.008.008 0 0 1 0 .002l.001.001v.003l.001.002s0 .001 0 0v.002l.001.002a.008.008 0 0 1 0 .001v.002l.001.001v.003l.001.001v.003l.001.002s0 .001 0 0v.002l.001.002v.003h.001s0 .001 0 0v.004l.001.001a.009.009 0 0 1 0 .001v.002l.001.001v.003l.001.001v.003l.001.002s0 .001 0 0v.002a.008.008 0 0 1 .001.002v.002l.001.002v.003s.001.001 0 0l.001.002v.002s.001.001 0 0l.001.002v.003l.001.001v.003l.001.001v.003l.001.001v.003l.001.001v.003a.006.006 0 0 1 .001.001v.003l.001.001v.004a.006.006 0 0 1 .001.002v.002l.001.002s0 .001 0 0v.002l.001.002s0 .001 0 0v.002l.001.002s0 .001 0 0v.003s.001 0 0 0l.001.002v.002l.001.002s0 .001 0 0v.002l.001.001v.003l.001.001v.002s0 .001 0 0v.002l.001.001v.002l1.894-.448 1.892-.448v-.003s0-.001 0 0l-.001-.002v-.002s0-.001 0 0v-.002l-.001-.001v-.002s0-.001 0 0l-.001-.002v-.002s0-.001 0 0l-.001-.002v-.004s-.001 0 0 0l-.001-.001v-.002s0-.001 0 0l-.001-.002v-.002s0-.001 0 0l-.001-.002v-.003l-.001-.001v-.003l-.001-.001v-.004s-.001 0 0 0l-.001-.001v-.003l-.001-.001v-.003l-.001-.001v-.003l-.001-.001v-.003l-.001-.001v-.003l-.001-.001v-.003l-.001-.002s0-.001 0 0v-.004s-.001 0 0 0h-.001s0-.001 0 0v-.004l-.001-.001v-.003l-.001-.001v-.002s0-.001 0 0l-.001-.002v-.003l-.001-.001v-.003l-.001-.002v-.002l-.001-.002v-.003l-.001-.001v-.003l-.001-.001v-.003l-.001-.001v-.003l-.001-.002v-.003h-.001s0-.001 0 0v-.004l-.001-.001v-.003l-.001-.001v-.003l-.001-.002v-.003l-.001-.001v-.002s0-.001 0 0l-.001-.002v-.003s-.001 0 0 0l-.001-.002v-.003s-.001 0 0 0l-.001-.001v-.002l-.001-.001v-.003l-.001-.001v-.003l-.001-.002v-.003l-.001-.001v-.003l-.001-.002v-.003l-.001-.001v-.003s-.001 0 0 0l-.001-.002-.001-.001v-.003l-.001-.002v-.003l-.001-.001v-.003l-.001-.002v-.003l-.001-.001v-.004s-.001 0 0 0l-.001-.001v-.002l-.001-.001v-.003l-.001-.002v-.003l-.001-.001v-.003s-.001 0 0 0l-.001-.002v-.001l-.001-.002v-.003l-.001-.001v-.004l-.001-.001v-.003s-.001 0 0 0l-.001-.002v-.001l-.001-.002v-.003l-.001-.002v-.003l-.001-.001v-.002l-.001-.001v-.004l-.001-.001v-.003l-.001-.002v-.001l-.001-.002v-.003l-.001-.002v-.003l-.001-.002v-.001l-.001-.002v-.003l-.001-.001v-.004l-.001-.001v-.002l-.001-.002v-.003l-.001-.001v-.004s-.001 0 0 0l-.001-.001v-.002l-.001-.001v-.004l-.001-.001v-.002l-.001-.002v-.003l-.001-.001v-.002l-.001-.002v-.003l-.001-.002v-.003s-.001 0 0 0l-.001-.002v-.001l-.001-.002v-.003l-.001-.002v-.001l-.001-.002v-.003l-.001-.002v-.002l-.001-.001v-.004l-.001-.001v-.002l-.001-.002v-.003l-.001-.002v-.002l-.001-.001v-.004l-.001-.001v-.002l-.001-.002V30.6l-1.894.448Zm.09.38-1.892.448c.22.927.62 2.038 1.51 2.744l1.207-1.525 1.208-1.525c.117.093.12.148.065.036a3.068 3.068 0 0 1-.205-.627l-1.892.448Zm.825 1.667-1.158 1.562c1.06.787 2.33.704 3.276.48l-.448-1.893-.45-1.893a1.996 1.996 0 0 1-.328.05.432.432 0 0 1-.023 0s.008 0 .023.004a.778.778 0 0 1 .267.128l-1.159 1.562Zm1.67.149.448 1.893a6.922 6.922 0 0 0 3.042-1.562l-1.292-1.454-1.292-1.454c-.36.32-.798.552-1.355.684l.449 1.893Zm2.198-1.123 1.305 1.442c.873-.79 1.65-1.936 2.368-3.285l-1.718-.913-1.718-.913c-.63 1.187-1.156 1.878-1.542 2.227l1.305 1.442Zm1.955-2.756.449 1.893.922-.219-.448-1.893-.449-1.892-.922.218.448 1.893Zm.923-.219-1.847-.612c-.588 1.773-1.31 3.041-2.104 3.905l1.432 1.317 1.432 1.316c1.272-1.384 2.228-3.188 2.933-5.314l-1.846-.612Zm-2.52 4.61-1.418-1.331a5.432 5.432 0 0 1-2.784 1.617l.449 1.893.448 1.892a9.32 9.32 0 0 0 4.724-2.74l-1.418-1.331Zm-3.753 2.179-.449-1.893c-1.077.255-1.646.1-1.962-.096l-1.021 1.656-1.021 1.655c1.473.91 3.192.975 4.901.57l-.448-1.892Zm-3.432-.333 1.042-1.643c-.298-.189-.702-.643-.973-1.784l-1.893.448-1.892.449c.406 1.717 1.218 3.248 2.674 4.172l1.042-1.642Zm-1.824-2.979 1.893-.448c-.197-.832-.284-1.784-.239-2.87l-1.943-.08-1.944-.081c-.057 1.384.049 2.698.34 3.928l1.893-.449Zm-.29-3.399 1.944.08c.045-1.085.21-2.046.48-2.893l-1.854-.589-1.854-.59c-.387 1.22-.601 2.527-.659 3.912l1.944.08Zm.57-3.402 1.847.612c.331-1 .783-1.712 1.309-2.216l-1.347-1.404-1.346-1.404c-1.063 1.019-1.816 2.313-2.31 3.8l1.847.612Zm1.81-3.008 1.354 1.396c.541-.525 1.205-.892 2.042-1.09l-.448-1.893-.449-1.893c-1.479.35-2.78 1.042-3.854 2.084l1.354 1.396Zm2.948-1.587.448 1.892c.367-.086.624-.104.792-.096.16.009.217.04.217.04l.922-1.712.922-1.713c-1.182-.637-2.525-.594-3.75-.304l.449 1.893Zm2.38.124-.856 1.747c-.017-.008-.014-.017.013.022.036.052.109.184.172.453l1.893-.449 1.893-.448c-.294-1.241-.965-2.438-2.261-3.072l-.855 1.747Zm-1.822 1.262-.449-1.892c-.911.216-1.55.807-1.972 1.406-.416.588-.707 1.298-.924 2.033l1.864.552 1.865.553c.154-.519.296-.786.374-.896.07-.101-.014.067-.31.137l-.448-1.893Zm-1.48 2.1-1.868-.543c-.428 1.473-.59 3.107-.528 4.874l1.944-.069 1.944-.069c-.051-1.454.088-2.661.375-3.65l-1.867-.544Zm-.452 4.262.578 1.858c1.583-.493 2.764-1.57 3.54-3.034l-1.718-.912-1.718-.91c-.36.676-.78.991-1.26 1.14l.578 1.858Zm2.4-2.087 1.717.913c.786-1.477 1.033-3.067.65-4.684l-1.893.448-1.893.449c.148.625.08 1.25-.298 1.96l1.717.913Zm.474-3.323 1.892-.448c-.115-.487-.337-1.175-.862-1.713l-1.392 1.359-1.393 1.358a1.08 1.08 0 0 1-.176-.241c-.005-.01.013.028.038.134l1.893-.449Zm-.362-.802 1.392-1.359c-.691-.708-1.612-.875-2.42-.683l.448 1.892.448 1.893c-.125.03-.344.055-.612-.013a1.398 1.398 0 0 1-.649-.372l1.392-1.358Z"/><path fill="#3D2101" d="M23.14 29.584c-.33-1.393-.008-2.693.967-3.898.994-1.21 2.377-2.025 4.15-2.445 1.375-.326 2.509-.299 3.401.082.911.377 1.49 1.09 1.74 2.139.192.814.14 1.523-.155 2.129-.278.6-.752.98-1.421 1.139-.253.06-.5.07-.738.031a1.56 1.56 0 0 1-.646-.305c.31-.303.523-.697.637-1.183.133-.49.143-.97.032-1.44-.138-.58-.415-.982-.831-1.208-.421-.244-.957-.289-1.608-.135-.778.185-1.342.548-1.691 1.089-.332.537-.405 1.194-.22 1.972.15.634.456 1.201.919 1.703.458.483 1.344 1.076 2.656 1.778 1.725.91 2.923 1.772 3.594 2.587.667.797 1.133 1.757 1.399 2.879.488 2.062.164 3.878-.974 5.446-1.137 1.57-2.819 2.617-5.044 3.145-1.773.42-3.271.345-4.495-.225-1.224-.57-2.012-1.596-2.364-3.08-.308-1.302-.172-2.462.408-3.478.581-1.017 1.423-1.656 2.527-1.917.687-.163 1.287-.133 1.798.09.507.204.845.583 1.014 1.135-.94.223-1.656.631-2.146 1.225-.471.59-.613 1.282-.424 2.078.18.76.563 1.328 1.149 1.705.586.377 1.277.471 2.073.283.94-.223 1.623-.729 2.048-1.517.425-.789.506-1.735.245-2.838a5.65 5.65 0 0 0-1.15-2.307c-.563-.688-1.597-1.542-3.1-2.562-1.36-.9-2.288-1.635-2.786-2.205-.484-.592-.806-1.223-.964-1.892Zm14.072 9.762a6.58 6.58 0 0 1-.132-.8c-.036-.316-.06-.654-.069-1.015l-.318-14.283 3.888-1.495.352 15.393c.002.172.011.332.028.48.011.132.035.27.069.414.086.362.23.605.43.73.216.101.522.105.92.01.507-.12.935-.45 1.284-.991.345-.56.543-1.218.593-1.975l1.14-.27c-.19 1.783-.671 3.216-1.447 4.298-.775 1.081-1.796 1.772-3.062 2.072-.905.215-1.686.104-2.343-.333-.644-.459-1.088-1.204-1.333-2.235ZM47.897 21.94a2.082 2.082 0 0 1-.291 1.674 2.126 2.126 0 0 1-1.372.984 2.126 2.126 0 0 1-1.668-.264 2.126 2.126 0 0 1-.984-1.372 2.126 2.126 0 0 1 .264-1.667c.313-.533.768-.87 1.365-1.012a2.082 2.082 0 0 1 1.674.292c.533.313.87.768 1.012 1.365Zm-3.583 15.723a6.58 6.58 0 0 1-.132-.8c-.037-.316-.06-.654-.069-1.015l-.218-9.148 3.907-.926.233 9.69c.002.17.011.33.028.48.011.13.035.269.069.413.086.362.23.605.43.73.216.101.522.105.92.01.507-.12.935-.45 1.284-.991.345-.56.543-1.218.593-1.975l1.14-.27c-.19 1.783-.671 3.216-1.447 4.298-.775 1.081-1.796 1.772-3.063 2.072-.904.215-1.685.104-2.342-.333-.644-.459-1.088-1.204-1.333-2.235Zm14.747-12.178c.146.615.126 1.136-.06 1.562a1.248 1.248 0 0 1-.909.76 1.507 1.507 0 0 1-.48.027 2.114 2.114 0 0 1-.547-.128c.04-.315.055-.615.045-.9a3.995 3.995 0 0 0-.099-.778c-.085-.362-.213-.618-.383-.77-.173-.168-.387-.223-.64-.163-.796.189-1.355 1.296-1.678 3.321-.327 2.007-.295 3.834.095 5.48.197.832.472 1.388.825 1.668.371.275.927.325 1.669.149a4.976 4.976 0 0 0 2.199-1.123c.629-.57 1.28-1.488 1.955-2.756l.922-.219c-.646 1.95-1.486 3.486-2.519 4.61a7.376 7.376 0 0 1-3.754 2.179c-1.392.33-2.536.219-3.432-.333-.877-.557-1.485-1.55-1.823-2.979-.245-1.03-.35-2.162-.317-3.392.051-1.235.25-2.372.597-3.41.412-1.243 1.015-2.246 1.809-3.007.808-.784 1.782-1.31 2.921-1.58.995-.237 1.797-.197 2.407.117.605.296 1.004.85 1.197 1.665Zm10.44-2.36c.356 1.502.052 2.96-.913 4.372-.968 1.395-2.292 2.34-3.971 2.833.054.312.092.551.112.719.035.144.065.27.09.38.198.832.473 1.387.825 1.667.371.275.928.325 1.67.149a4.977 4.977 0 0 0 2.198-1.123c.63-.57 1.281-1.488 1.955-2.756l.923-.219c-.647 1.95-1.486 3.486-2.52 4.61a7.377 7.377 0 0 1-3.753 2.179c-1.393.33-2.537.219-3.432-.333-.877-.557-1.485-1.55-1.824-2.979-.244-1.03-.34-2.164-.29-3.399.052-1.235.242-2.369.57-3.402.412-1.244 1.015-2.247 1.81-3.008.807-.784 1.79-1.313 2.948-1.587.995-.236 1.788-.195 2.38.124.604.296 1.012.887 1.222 1.773Zm-3.044-.51c-.615.145-1.109.845-1.48 2.099-.358 1.23-.509 2.652-.452 4.262 1.032-.32 1.832-1.017 2.4-2.087.582-1.094.74-2.201.474-3.323-.09-.38-.211-.647-.362-.802-.152-.155-.345-.205-.58-.15Z"/></svg>